<mxfile host="app.diagrams.net" agent="Mozilla/5.0 (Windows NT 10.0; Win64; x64) AppleWebKit/537.36 (KHTML, like Gecko) Chrome/129.0.0.0 Safari/537.36 Edg/129.0.0.0" version="24.7.16" pages="6">
  <diagram name="company_employee" id="-xG816sbkxzMP-44C8wM">
    <mxGraphModel grid="1" page="1" gridSize="10" guides="1" tooltips="1" connect="1" arrows="1" fold="1" pageScale="1" pageWidth="850" pageHeight="1100" math="0" shadow="0">
      <root>
        <mxCell id="0" />
        <mxCell id="1" parent="0" />
        <mxCell id="pxRNpowELSN-kr384bWJ-1" value="employee" style="rounded=0;whiteSpace=wrap;html=1;fontSize=12;" vertex="1" parent="1">
          <mxGeometry x="315" y="340" width="75" height="40" as="geometry" />
        </mxCell>
        <mxCell id="pxRNpowELSN-kr384bWJ-5" value="" style="endArrow=none;html=1;rounded=0;" edge="1" parent="1" source="pxRNpowELSN-kr384bWJ-1" target="pxRNpowELSN-kr384bWJ-6">
          <mxGeometry width="50" height="50" relative="1" as="geometry">
            <mxPoint x="290" y="340" as="sourcePoint" />
            <mxPoint x="380" y="310" as="targetPoint" />
          </mxGeometry>
        </mxCell>
        <mxCell id="pxRNpowELSN-kr384bWJ-6" value="id" style="ellipse;whiteSpace=wrap;html=1;fontSize=12;fontStyle=4" vertex="1" parent="1">
          <mxGeometry x="240" y="270" width="110" height="50" as="geometry" />
        </mxCell>
        <mxCell id="pxRNpowELSN-kr384bWJ-7" value="" style="endArrow=none;html=1;rounded=0;exitX=0;exitY=0.5;exitDx=0;exitDy=0;" edge="1" parent="1" source="pxRNpowELSN-kr384bWJ-1" target="pxRNpowELSN-kr384bWJ-8">
          <mxGeometry width="50" height="50" relative="1" as="geometry">
            <mxPoint x="270" y="370" as="sourcePoint" />
            <mxPoint x="315" y="360" as="targetPoint" />
          </mxGeometry>
        </mxCell>
        <mxCell id="pxRNpowELSN-kr384bWJ-8" value="name" style="ellipse;whiteSpace=wrap;html=1;" vertex="1" parent="1">
          <mxGeometry x="220" y="350" width="75" height="40" as="geometry" />
        </mxCell>
        <mxCell id="pxRNpowELSN-kr384bWJ-9" value="" style="endArrow=none;html=1;rounded=0;exitX=0;exitY=0.5;exitDx=0;exitDy=0;" edge="1" parent="1" target="pxRNpowELSN-kr384bWJ-10">
          <mxGeometry width="50" height="50" relative="1" as="geometry">
            <mxPoint x="330" y="380" as="sourcePoint" />
            <mxPoint x="330" y="380" as="targetPoint" />
          </mxGeometry>
        </mxCell>
        <mxCell id="pxRNpowELSN-kr384bWJ-10" value="age" style="ellipse;whiteSpace=wrap;html=1;" vertex="1" parent="1">
          <mxGeometry x="265" y="410" width="75" height="40" as="geometry" />
        </mxCell>
        <mxCell id="pxRNpowELSN-kr384bWJ-13" value="&lt;span style=&quot;font-size: 7px;&quot;&gt;number of employees&lt;/span&gt;" style="ellipse;whiteSpace=wrap;html=1;align=center;dashed=1;" vertex="1" parent="1">
          <mxGeometry x="-430" y="60" width="100" height="40" as="geometry" />
        </mxCell>
        <mxCell id="pxRNpowELSN-kr384bWJ-16" value="project" style="rounded=0;whiteSpace=wrap;html=1;fontSize=12;" vertex="1" parent="1">
          <mxGeometry x="640" y="340" width="60" height="40" as="geometry" />
        </mxCell>
        <mxCell id="pxRNpowELSN-kr384bWJ-17" value="assign" style="rhombus;whiteSpace=wrap;html=1;" vertex="1" parent="1">
          <mxGeometry x="480" y="340" width="70" height="40" as="geometry" />
        </mxCell>
        <mxCell id="pxRNpowELSN-kr384bWJ-20" value="" style="endArrow=none;html=1;rounded=0;" edge="1" parent="1" source="pxRNpowELSN-kr384bWJ-16" target="pxRNpowELSN-kr384bWJ-21">
          <mxGeometry width="50" height="50" relative="1" as="geometry">
            <mxPoint x="690" y="340" as="sourcePoint" />
            <mxPoint x="710" y="310" as="targetPoint" />
          </mxGeometry>
        </mxCell>
        <mxCell id="pxRNpowELSN-kr384bWJ-21" value="identifier" style="ellipse;whiteSpace=wrap;html=1;fontSize=12;fontStyle=4" vertex="1" parent="1">
          <mxGeometry x="690" y="280" width="70" height="30" as="geometry" />
        </mxCell>
        <mxCell id="pxRNpowELSN-kr384bWJ-22" value="" style="endArrow=none;html=1;rounded=0;" edge="1" parent="1" source="pxRNpowELSN-kr384bWJ-16" target="pxRNpowELSN-kr384bWJ-23">
          <mxGeometry width="50" height="50" relative="1" as="geometry">
            <mxPoint x="640" y="380" as="sourcePoint" />
            <mxPoint x="640" y="380" as="targetPoint" />
          </mxGeometry>
        </mxCell>
        <mxCell id="pxRNpowELSN-kr384bWJ-23" value="name" style="ellipse;whiteSpace=wrap;html=1;" vertex="1" parent="1">
          <mxGeometry x="700" y="410" width="75" height="40" as="geometry" />
        </mxCell>
        <mxCell id="pxRNpowELSN-kr384bWJ-24" value="" style="endArrow=none;html=1;rounded=0;" edge="1" parent="1" source="pxRNpowELSN-kr384bWJ-16" target="pxRNpowELSN-kr384bWJ-25">
          <mxGeometry width="50" height="50" relative="1" as="geometry">
            <mxPoint x="825" y="430" as="sourcePoint" />
            <mxPoint x="825" y="430" as="targetPoint" />
          </mxGeometry>
        </mxCell>
        <mxCell id="pxRNpowELSN-kr384bWJ-25" value="start day" style="ellipse;whiteSpace=wrap;html=1;" vertex="1" parent="1">
          <mxGeometry x="730" y="340" width="75" height="40" as="geometry" />
        </mxCell>
        <mxCell id="pxRNpowELSN-kr384bWJ-26" value="" style="shape=link;html=1;rounded=0;width=4.193548387096774;" edge="1" parent="1" source="pxRNpowELSN-kr384bWJ-17" target="pxRNpowELSN-kr384bWJ-16">
          <mxGeometry relative="1" as="geometry">
            <mxPoint x="510" y="420" as="sourcePoint" />
            <mxPoint x="670" y="420" as="targetPoint" />
          </mxGeometry>
        </mxCell>
        <mxCell id="pxRNpowELSN-kr384bWJ-27" value="" style="resizable=0;html=1;whiteSpace=wrap;align=left;verticalAlign=bottom;" connectable="0" vertex="1" parent="pxRNpowELSN-kr384bWJ-26">
          <mxGeometry x="-1" relative="1" as="geometry" />
        </mxCell>
        <mxCell id="pxRNpowELSN-kr384bWJ-28" value="M" style="resizable=0;html=1;whiteSpace=wrap;align=right;verticalAlign=bottom;" connectable="0" vertex="1" parent="pxRNpowELSN-kr384bWJ-26">
          <mxGeometry x="1" relative="1" as="geometry">
            <mxPoint x="-30" as="offset" />
          </mxGeometry>
        </mxCell>
        <mxCell id="pxRNpowELSN-kr384bWJ-36" value="" style="endArrow=none;html=1;rounded=0;" edge="1" parent="1" source="pxRNpowELSN-kr384bWJ-1" target="pxRNpowELSN-kr384bWJ-17">
          <mxGeometry relative="1" as="geometry">
            <mxPoint x="390" y="420" as="sourcePoint" />
            <mxPoint x="550" y="420" as="targetPoint" />
          </mxGeometry>
        </mxCell>
        <mxCell id="pxRNpowELSN-kr384bWJ-37" value="N" style="resizable=0;html=1;whiteSpace=wrap;align=right;verticalAlign=bottom;" connectable="0" vertex="1" parent="pxRNpowELSN-kr384bWJ-36">
          <mxGeometry x="1" relative="1" as="geometry">
            <mxPoint x="-40" as="offset" />
          </mxGeometry>
        </mxCell>
        <mxCell id="pxRNpowELSN-kr384bWJ-39" value="billing rate" style="shape=ext;margin=3;double=1;whiteSpace=wrap;html=1;align=center;" vertex="1" parent="1">
          <mxGeometry x="-685" y="50" width="85" height="30" as="geometry" />
        </mxCell>
        <mxCell id="pxRNpowELSN-kr384bWJ-40" value="" style="endArrow=none;html=1;rounded=0;" edge="1" parent="1" source="pxRNpowELSN-kr384bWJ-39" target="pxRNpowELSN-kr384bWJ-41">
          <mxGeometry width="50" height="50" relative="1" as="geometry">
            <mxPoint x="-707.5" y="120" as="sourcePoint" />
            <mxPoint x="-707.5" y="120" as="targetPoint" />
          </mxGeometry>
        </mxCell>
        <mxCell id="pxRNpowELSN-kr384bWJ-41" value="rate" style="ellipse;whiteSpace=wrap;html=1;" vertex="1" parent="1">
          <mxGeometry x="-750" y="140" width="50" height="20" as="geometry" />
        </mxCell>
        <mxCell id="pxRNpowELSN-kr384bWJ-42" value="" style="endArrow=none;html=1;rounded=0;" edge="1" parent="1" source="pxRNpowELSN-kr384bWJ-39">
          <mxGeometry width="50" height="50" relative="1" as="geometry">
            <mxPoint x="-503" y="110" as="sourcePoint" />
            <mxPoint x="-580" y="160" as="targetPoint" />
          </mxGeometry>
        </mxCell>
        <mxCell id="pxRNpowELSN-kr384bWJ-43" value="start join" style="ellipse;whiteSpace=wrap;html=1;" vertex="1" parent="1">
          <mxGeometry x="-610" y="140" width="60" height="30" as="geometry" />
        </mxCell>
        <mxCell id="4GO2DsAHgjfPd45TjZTn-17" value="" style="endArrow=none;html=1;rounded=0;" edge="1" parent="1" source="pxRNpowELSN-kr384bWJ-17" target="ou9LFq7SpX3HIBTogo71-1">
          <mxGeometry width="50" height="50" relative="1" as="geometry">
            <mxPoint x="505.4303080285074" y="444.53160458771856" as="sourcePoint" />
            <mxPoint x="484.7359615845023" y="420.27945450993786" as="targetPoint" />
          </mxGeometry>
        </mxCell>
        <mxCell id="4GO2DsAHgjfPd45TjZTn-19" value="" style="endArrow=none;html=1;rounded=0;entryX=0.246;entryY=0.115;entryDx=0;entryDy=0;entryPerimeter=0;" edge="1" parent="1" source="pxRNpowELSN-kr384bWJ-17" target="4GO2DsAHgjfPd45TjZTn-20">
          <mxGeometry width="50" height="50" relative="1" as="geometry">
            <mxPoint x="523.9156225603745" y="444.9053585369288" as="sourcePoint" />
            <mxPoint x="585" y="539.74" as="targetPoint" />
          </mxGeometry>
        </mxCell>
        <mxCell id="4GO2DsAHgjfPd45TjZTn-20" value="start join" style="ellipse;whiteSpace=wrap;html=1;" vertex="1" parent="1">
          <mxGeometry x="530" y="420" width="60" height="30" as="geometry" />
        </mxCell>
        <mxCell id="ou9LFq7SpX3HIBTogo71-1" value="billing rate" style="ellipse;whiteSpace=wrap;html=1;align=center;dashed=1;" vertex="1" parent="1">
          <mxGeometry x="440" y="420" width="80" height="30" as="geometry" />
        </mxCell>
      </root>
    </mxGraphModel>
  </diagram>
  <diagram id="TEBqA8UbPKH3L3-Pdoq5" name="course">
    <mxGraphModel grid="1" page="1" gridSize="10" guides="1" tooltips="1" connect="1" arrows="1" fold="1" pageScale="1" pageWidth="850" pageHeight="1100" math="0" shadow="0">
      <root>
        <mxCell id="0" />
        <mxCell id="1" parent="0" />
        <mxCell id="ObWstSJc_1x6mt2cxdoz-1" value="course" style="whiteSpace=wrap;html=1;align=center;" vertex="1" parent="1">
          <mxGeometry x="375" y="190" width="100" height="40" as="geometry" />
        </mxCell>
        <mxCell id="ObWstSJc_1x6mt2cxdoz-2" value="name" style="ellipse;whiteSpace=wrap;html=1;align=center;" vertex="1" parent="1">
          <mxGeometry x="540" y="140" width="100" height="40" as="geometry" />
        </mxCell>
        <mxCell id="ObWstSJc_1x6mt2cxdoz-3" value="" style="endArrow=none;html=1;rounded=0;" edge="1" parent="1" source="ObWstSJc_1x6mt2cxdoz-2" target="ObWstSJc_1x6mt2cxdoz-1">
          <mxGeometry relative="1" as="geometry">
            <mxPoint x="370" y="130" as="sourcePoint" />
            <mxPoint x="530" y="130" as="targetPoint" />
          </mxGeometry>
        </mxCell>
        <mxCell id="ObWstSJc_1x6mt2cxdoz-4" value="&lt;u&gt;id&lt;/u&gt;" style="ellipse;whiteSpace=wrap;html=1;align=center;" vertex="1" parent="1">
          <mxGeometry x="375" y="110" width="100" height="40" as="geometry" />
        </mxCell>
        <mxCell id="ObWstSJc_1x6mt2cxdoz-5" value="" style="endArrow=none;html=1;rounded=0;" edge="1" parent="1" source="ObWstSJc_1x6mt2cxdoz-4" target="ObWstSJc_1x6mt2cxdoz-1">
          <mxGeometry relative="1" as="geometry">
            <mxPoint x="325" y="190" as="sourcePoint" />
            <mxPoint x="355" y="250" as="targetPoint" />
          </mxGeometry>
        </mxCell>
        <mxCell id="ObWstSJc_1x6mt2cxdoz-6" value="credit" style="ellipse;whiteSpace=wrap;html=1;align=center;" vertex="1" parent="1">
          <mxGeometry x="250" y="140" width="100" height="40" as="geometry" />
        </mxCell>
        <mxCell id="ObWstSJc_1x6mt2cxdoz-7" value="" style="endArrow=none;html=1;rounded=0;" edge="1" parent="1" source="ObWstSJc_1x6mt2cxdoz-6" target="ObWstSJc_1x6mt2cxdoz-1">
          <mxGeometry relative="1" as="geometry">
            <mxPoint x="335" y="270" as="sourcePoint" />
            <mxPoint x="365" y="330" as="targetPoint" />
          </mxGeometry>
        </mxCell>
        <mxCell id="_5iMv8H_jwt1QEU4cslb-3" value="prerequisite" style="shape=rhombus;perimeter=rhombusPerimeter;whiteSpace=wrap;html=1;align=center;" vertex="1" parent="1">
          <mxGeometry x="365" y="260" width="120" height="60" as="geometry" />
        </mxCell>
        <mxCell id="_5iMv8H_jwt1QEU4cslb-4" value="" style="endArrow=none;html=1;rounded=0;entryX=0;entryY=0.5;entryDx=0;entryDy=0;" edge="1" parent="1" source="ObWstSJc_1x6mt2cxdoz-1" target="_5iMv8H_jwt1QEU4cslb-3">
          <mxGeometry relative="1" as="geometry">
            <mxPoint x="370" y="260" as="sourcePoint" />
            <mxPoint x="530" y="260" as="targetPoint" />
            <Array as="points" />
          </mxGeometry>
        </mxCell>
        <mxCell id="_5iMv8H_jwt1QEU4cslb-5" value="M" style="resizable=0;html=1;whiteSpace=wrap;align=right;verticalAlign=bottom;" connectable="0" vertex="1" parent="_5iMv8H_jwt1QEU4cslb-4">
          <mxGeometry x="1" relative="1" as="geometry">
            <mxPoint x="10" y="-10" as="offset" />
          </mxGeometry>
        </mxCell>
        <mxCell id="_5iMv8H_jwt1QEU4cslb-6" value="" style="endArrow=none;html=1;rounded=0;entryX=1;entryY=0.5;entryDx=0;entryDy=0;" edge="1" parent="1" source="ObWstSJc_1x6mt2cxdoz-1" target="_5iMv8H_jwt1QEU4cslb-3">
          <mxGeometry relative="1" as="geometry">
            <mxPoint x="470" y="240" as="sourcePoint" />
            <mxPoint x="470" y="270" as="targetPoint" />
            <Array as="points" />
          </mxGeometry>
        </mxCell>
        <mxCell id="_5iMv8H_jwt1QEU4cslb-7" value="N" style="resizable=0;html=1;whiteSpace=wrap;align=right;verticalAlign=bottom;" connectable="0" vertex="1" parent="_5iMv8H_jwt1QEU4cslb-6">
          <mxGeometry x="1" relative="1" as="geometry">
            <mxPoint y="-20" as="offset" />
          </mxGeometry>
        </mxCell>
      </root>
    </mxGraphModel>
  </diagram>
  <diagram id="5n3DxTqvFnybzIGRcnwr" name="laboratory">
    <mxGraphModel grid="1" page="1" gridSize="10" guides="1" tooltips="1" connect="1" arrows="1" fold="1" pageScale="1" pageWidth="850" pageHeight="1100" math="0" shadow="0">
      <root>
        <mxCell id="0" />
        <mxCell id="1" parent="0" />
        <mxCell id="9hjuSboasaTUa2dhaa0--1" value="chemist" style="whiteSpace=wrap;html=1;align=center;" vertex="1" parent="1">
          <mxGeometry x="285" y="290" width="90" height="30" as="geometry" />
        </mxCell>
        <mxCell id="9hjuSboasaTUa2dhaa0--2" value="&lt;u&gt;id&lt;/u&gt;" style="ellipse;whiteSpace=wrap;html=1;align=center;" vertex="1" parent="1">
          <mxGeometry x="210" y="220" width="80" height="30" as="geometry" />
        </mxCell>
        <mxCell id="9hjuSboasaTUa2dhaa0--3" value="" style="endArrow=none;html=1;rounded=0;" edge="1" parent="1" source="9hjuSboasaTUa2dhaa0--2" target="9hjuSboasaTUa2dhaa0--1">
          <mxGeometry relative="1" as="geometry">
            <mxPoint x="260" y="300" as="sourcePoint" />
            <mxPoint x="420" y="300" as="targetPoint" />
          </mxGeometry>
        </mxCell>
        <mxCell id="9hjuSboasaTUa2dhaa0--4" value="name" style="ellipse;whiteSpace=wrap;html=1;align=center;" vertex="1" parent="1">
          <mxGeometry x="180" y="285" width="70" height="40" as="geometry" />
        </mxCell>
        <mxCell id="9hjuSboasaTUa2dhaa0--5" value="" style="endArrow=none;html=1;rounded=0;" edge="1" parent="1" source="9hjuSboasaTUa2dhaa0--4" target="9hjuSboasaTUa2dhaa0--1">
          <mxGeometry relative="1" as="geometry">
            <mxPoint x="220" y="370" as="sourcePoint" />
            <mxPoint x="281" y="360" as="targetPoint" />
          </mxGeometry>
        </mxCell>
        <mxCell id="4QCEzOecrxhWEq67AIEx-1" value="project" style="rounded=0;whiteSpace=wrap;html=1;fontSize=12;" vertex="1" parent="1">
          <mxGeometry x="540" y="290" width="60" height="30" as="geometry" />
        </mxCell>
        <mxCell id="4QCEzOecrxhWEq67AIEx-2" value="" style="endArrow=none;html=1;rounded=0;" edge="1" parent="1" source="4QCEzOecrxhWEq67AIEx-1" target="4QCEzOecrxhWEq67AIEx-3">
          <mxGeometry width="50" height="50" relative="1" as="geometry">
            <mxPoint x="590" y="285" as="sourcePoint" />
            <mxPoint x="610" y="255" as="targetPoint" />
          </mxGeometry>
        </mxCell>
        <mxCell id="4QCEzOecrxhWEq67AIEx-3" value="identifier" style="ellipse;whiteSpace=wrap;html=1;fontSize=12;fontStyle=4" vertex="1" parent="1">
          <mxGeometry x="590" y="225" width="70" height="30" as="geometry" />
        </mxCell>
        <mxCell id="4QCEzOecrxhWEq67AIEx-4" value="" style="endArrow=none;html=1;rounded=0;" edge="1" parent="1" source="4QCEzOecrxhWEq67AIEx-1" target="4QCEzOecrxhWEq67AIEx-5">
          <mxGeometry width="50" height="50" relative="1" as="geometry">
            <mxPoint x="540" y="325" as="sourcePoint" />
            <mxPoint x="540" y="325" as="targetPoint" />
          </mxGeometry>
        </mxCell>
        <mxCell id="4QCEzOecrxhWEq67AIEx-5" value="name" style="ellipse;whiteSpace=wrap;html=1;" vertex="1" parent="1">
          <mxGeometry x="600" y="355" width="75" height="40" as="geometry" />
        </mxCell>
        <mxCell id="4QCEzOecrxhWEq67AIEx-6" value="" style="endArrow=none;html=1;rounded=0;" edge="1" parent="1" source="4QCEzOecrxhWEq67AIEx-1" target="4QCEzOecrxhWEq67AIEx-7">
          <mxGeometry width="50" height="50" relative="1" as="geometry">
            <mxPoint x="725" y="375" as="sourcePoint" />
            <mxPoint x="725" y="375" as="targetPoint" />
          </mxGeometry>
        </mxCell>
        <mxCell id="4QCEzOecrxhWEq67AIEx-7" value="start day" style="ellipse;whiteSpace=wrap;html=1;" vertex="1" parent="1">
          <mxGeometry x="630" y="285" width="75" height="40" as="geometry" />
        </mxCell>
        <mxCell id="r43J2LIA3HtifUQ24Fsq-1" value="work on" style="rhombus;whiteSpace=wrap;html=1;" vertex="1" parent="1">
          <mxGeometry x="430" y="285" width="70" height="40" as="geometry" />
        </mxCell>
        <mxCell id="r43J2LIA3HtifUQ24Fsq-2" value="" style="resizable=0;html=1;whiteSpace=wrap;align=left;verticalAlign=bottom;" connectable="0" vertex="1" parent="1">
          <mxGeometry x="500" y="305" as="geometry" />
        </mxCell>
        <mxCell id="r43J2LIA3HtifUQ24Fsq-11" value="" style="endArrow=none;html=1;rounded=0;" edge="1" parent="1" source="9hjuSboasaTUa2dhaa0--1" target="r43J2LIA3HtifUQ24Fsq-1">
          <mxGeometry relative="1" as="geometry">
            <mxPoint x="400" y="340" as="sourcePoint" />
            <mxPoint x="560" y="340" as="targetPoint" />
          </mxGeometry>
        </mxCell>
        <mxCell id="r43J2LIA3HtifUQ24Fsq-12" value="M" style="resizable=0;html=1;whiteSpace=wrap;align=right;verticalAlign=bottom;" connectable="0" vertex="1" parent="r43J2LIA3HtifUQ24Fsq-11">
          <mxGeometry x="1" relative="1" as="geometry">
            <mxPoint x="-20" as="offset" />
          </mxGeometry>
        </mxCell>
        <mxCell id="r43J2LIA3HtifUQ24Fsq-13" value="" style="endArrow=none;html=1;rounded=0;" edge="1" parent="1" source="r43J2LIA3HtifUQ24Fsq-1" target="4QCEzOecrxhWEq67AIEx-1">
          <mxGeometry relative="1" as="geometry">
            <mxPoint x="400" y="340" as="sourcePoint" />
            <mxPoint x="560" y="340" as="targetPoint" />
          </mxGeometry>
        </mxCell>
        <mxCell id="r43J2LIA3HtifUQ24Fsq-14" value="N" style="resizable=0;html=1;whiteSpace=wrap;align=right;verticalAlign=bottom;" connectable="0" vertex="1" parent="r43J2LIA3HtifUQ24Fsq-13">
          <mxGeometry x="1" relative="1" as="geometry">
            <mxPoint x="-10" as="offset" />
          </mxGeometry>
        </mxCell>
        <mxCell id="r43J2LIA3HtifUQ24Fsq-15" value="equipment" style="whiteSpace=wrap;html=1;align=center;" vertex="1" parent="1">
          <mxGeometry x="420" y="370" width="90" height="30" as="geometry" />
        </mxCell>
        <mxCell id="r43J2LIA3HtifUQ24Fsq-16" value="" style="endArrow=none;html=1;rounded=0;" edge="1" parent="1" source="r43J2LIA3HtifUQ24Fsq-1" target="r43J2LIA3HtifUQ24Fsq-15">
          <mxGeometry relative="1" as="geometry">
            <mxPoint x="400" y="400" as="sourcePoint" />
            <mxPoint x="560" y="400" as="targetPoint" />
          </mxGeometry>
        </mxCell>
        <mxCell id="r43J2LIA3HtifUQ24Fsq-17" value="N" style="resizable=0;html=1;whiteSpace=wrap;align=right;verticalAlign=bottom;direction=west;rotation=0;" connectable="0" vertex="1" parent="1">
          <mxGeometry x="480.0000000000001" y="355" as="geometry">
            <mxPoint x="6" y="4" as="offset" />
          </mxGeometry>
        </mxCell>
        <mxCell id="r43J2LIA3HtifUQ24Fsq-20" value="phone number" style="ellipse;whiteSpace=wrap;html=1;align=center;" vertex="1" parent="1">
          <mxGeometry x="190" y="355" width="95" height="30" as="geometry" />
        </mxCell>
        <mxCell id="r43J2LIA3HtifUQ24Fsq-21" value="" style="endArrow=none;html=1;rounded=0;" edge="1" parent="1" source="r43J2LIA3HtifUQ24Fsq-20" target="9hjuSboasaTUa2dhaa0--1">
          <mxGeometry relative="1" as="geometry">
            <mxPoint x="260" y="315" as="sourcePoint" />
            <mxPoint x="310" y="315" as="targetPoint" />
          </mxGeometry>
        </mxCell>
        <mxCell id="r43J2LIA3HtifUQ24Fsq-22" value="&lt;u&gt;serial number&lt;/u&gt;" style="ellipse;whiteSpace=wrap;html=1;" vertex="1" parent="1">
          <mxGeometry x="380" y="430" width="80" height="40" as="geometry" />
        </mxCell>
        <mxCell id="r43J2LIA3HtifUQ24Fsq-23" value="cost" style="ellipse;whiteSpace=wrap;html=1;" vertex="1" parent="1">
          <mxGeometry x="480" y="432.5" width="80" height="37.5" as="geometry" />
        </mxCell>
        <mxCell id="r43J2LIA3HtifUQ24Fsq-24" value="" style="endArrow=none;html=1;rounded=0;" edge="1" parent="1" source="r43J2LIA3HtifUQ24Fsq-22" target="r43J2LIA3HtifUQ24Fsq-15">
          <mxGeometry relative="1" as="geometry">
            <mxPoint x="400" y="457" as="sourcePoint" />
            <mxPoint x="460" y="420" as="targetPoint" />
          </mxGeometry>
        </mxCell>
        <mxCell id="r43J2LIA3HtifUQ24Fsq-25" value="" style="endArrow=none;html=1;rounded=0;" edge="1" parent="1" source="r43J2LIA3HtifUQ24Fsq-23" target="r43J2LIA3HtifUQ24Fsq-15">
          <mxGeometry relative="1" as="geometry">
            <mxPoint x="460" y="457" as="sourcePoint" />
            <mxPoint x="520" y="420" as="targetPoint" />
          </mxGeometry>
        </mxCell>
        <mxCell id="Xu8W_g4wnlppoDgRPAkM-1" value="date_use" style="ellipse;whiteSpace=wrap;html=1;" vertex="1" parent="1">
          <mxGeometry x="425" y="220" width="80" height="40" as="geometry" />
        </mxCell>
        <mxCell id="Xu8W_g4wnlppoDgRPAkM-3" value="" style="endArrow=none;html=1;rounded=0;" edge="1" parent="1" source="r43J2LIA3HtifUQ24Fsq-1" target="Xu8W_g4wnlppoDgRPAkM-1">
          <mxGeometry relative="1" as="geometry">
            <mxPoint x="350" y="340" as="sourcePoint" />
            <mxPoint x="510" y="340" as="targetPoint" />
          </mxGeometry>
        </mxCell>
      </root>
    </mxGraphModel>
  </diagram>
  <diagram id="0emuw8yRGxBV6im7yzof" name="hospital">
    <mxGraphModel grid="1" page="1" gridSize="10" guides="1" tooltips="1" connect="1" arrows="1" fold="1" pageScale="1" pageWidth="850" pageHeight="1100" math="0" shadow="0">
      <root>
        <mxCell id="0" />
        <mxCell id="1" parent="0" />
        <mxCell id="uEte6VN7Z0MwW_jkTjFQ-1" value="physician" style="whiteSpace=wrap;html=1;align=center;" vertex="1" parent="1">
          <mxGeometry x="240" y="300" width="100" height="40" as="geometry" />
        </mxCell>
        <mxCell id="uEte6VN7Z0MwW_jkTjFQ-2" value="patient" style="whiteSpace=wrap;html=1;align=center;" vertex="1" parent="1">
          <mxGeometry x="560" y="300" width="100" height="40" as="geometry" />
        </mxCell>
        <mxCell id="uEte6VN7Z0MwW_jkTjFQ-4" value="" style="endArrow=none;html=1;rounded=0;" edge="1" parent="1" source="uEte6VN7Z0MwW_jkTjFQ-1" target="uEte6VN7Z0MwW_jkTjFQ-6">
          <mxGeometry relative="1" as="geometry">
            <mxPoint x="330" y="340" as="sourcePoint" />
            <mxPoint x="214.883472868504" y="267.34733537118575" as="targetPoint" />
          </mxGeometry>
        </mxCell>
        <mxCell id="uEte6VN7Z0MwW_jkTjFQ-6" value="id" style="ellipse;whiteSpace=wrap;html=1;align=center;fontStyle=4;" vertex="1" parent="1">
          <mxGeometry x="150" y="230" width="100" height="40" as="geometry" />
        </mxCell>
        <mxCell id="uEte6VN7Z0MwW_jkTjFQ-7" value="treatment" style="shape=rhombus;perimeter=rhombusPerimeter;whiteSpace=wrap;html=1;align=center;" vertex="1" parent="1">
          <mxGeometry x="397.5" y="330" width="120" height="60" as="geometry" />
        </mxCell>
        <mxCell id="uEte6VN7Z0MwW_jkTjFQ-13" value="id" style="ellipse;whiteSpace=wrap;html=1;align=center;fontStyle=4;" vertex="1" parent="1">
          <mxGeometry x="600" y="250" width="100" height="40" as="geometry" />
        </mxCell>
        <mxCell id="uEte6VN7Z0MwW_jkTjFQ-14" value="" style="endArrow=none;html=1;rounded=0;" edge="1" parent="1" source="uEte6VN7Z0MwW_jkTjFQ-2" target="uEte6VN7Z0MwW_jkTjFQ-13">
          <mxGeometry relative="1" as="geometry">
            <mxPoint x="330" y="340" as="sourcePoint" />
            <mxPoint x="490" y="340" as="targetPoint" />
          </mxGeometry>
        </mxCell>
        <mxCell id="uEte6VN7Z0MwW_jkTjFQ-15" value="name" style="ellipse;whiteSpace=wrap;html=1;align=center;" vertex="1" parent="1">
          <mxGeometry x="600" y="370" width="100" height="40" as="geometry" />
        </mxCell>
        <mxCell id="uEte6VN7Z0MwW_jkTjFQ-16" value="" style="endArrow=none;html=1;rounded=0;" edge="1" parent="1" source="uEte6VN7Z0MwW_jkTjFQ-15" target="uEte6VN7Z0MwW_jkTjFQ-2">
          <mxGeometry relative="1" as="geometry">
            <mxPoint x="610" y="370" as="sourcePoint" />
            <mxPoint x="623" y="340" as="targetPoint" />
          </mxGeometry>
        </mxCell>
        <mxCell id="uEte6VN7Z0MwW_jkTjFQ-17" value="address" style="ellipse;whiteSpace=wrap;html=1;align=center;" vertex="1" parent="1">
          <mxGeometry x="680" y="310" width="100" height="40" as="geometry" />
        </mxCell>
        <mxCell id="uEte6VN7Z0MwW_jkTjFQ-18" value="" style="endArrow=none;html=1;rounded=0;" edge="1" parent="1" source="uEte6VN7Z0MwW_jkTjFQ-17" target="uEte6VN7Z0MwW_jkTjFQ-2">
          <mxGeometry relative="1" as="geometry">
            <mxPoint x="710" y="290" as="sourcePoint" />
            <mxPoint x="714" y="260" as="targetPoint" />
          </mxGeometry>
        </mxCell>
        <mxCell id="uEte6VN7Z0MwW_jkTjFQ-19" value="" style="endArrow=none;html=1;rounded=0;entryX=0;entryY=0.5;entryDx=0;entryDy=0;" edge="1" parent="1" target="uEte6VN7Z0MwW_jkTjFQ-7">
          <mxGeometry relative="1" as="geometry">
            <mxPoint x="340" y="319.71" as="sourcePoint" />
            <mxPoint x="390" y="319.71" as="targetPoint" />
          </mxGeometry>
        </mxCell>
        <mxCell id="uEte6VN7Z0MwW_jkTjFQ-20" value="M" style="resizable=0;html=1;whiteSpace=wrap;align=right;verticalAlign=bottom;" connectable="0" vertex="1" parent="uEte6VN7Z0MwW_jkTjFQ-19">
          <mxGeometry x="1" relative="1" as="geometry">
            <mxPoint x="-20" as="offset" />
          </mxGeometry>
        </mxCell>
        <mxCell id="uEte6VN7Z0MwW_jkTjFQ-22" value="specialty" style="ellipse;shape=doubleEllipse;margin=3;whiteSpace=wrap;html=1;align=center;" vertex="1" parent="1">
          <mxGeometry x="120" y="310" width="100" height="40" as="geometry" />
        </mxCell>
        <mxCell id="uEte6VN7Z0MwW_jkTjFQ-23" value="" style="endArrow=none;html=1;rounded=0;" edge="1" parent="1" source="uEte6VN7Z0MwW_jkTjFQ-22" target="uEte6VN7Z0MwW_jkTjFQ-1">
          <mxGeometry relative="1" as="geometry">
            <mxPoint x="390" y="340" as="sourcePoint" />
            <mxPoint x="550" y="340" as="targetPoint" />
          </mxGeometry>
        </mxCell>
        <mxCell id="uEte6VN7Z0MwW_jkTjFQ-26" value="" style="shape=link;html=1;rounded=0;exitX=1;exitY=0.5;exitDx=0;exitDy=0;" edge="1" parent="1" source="uEte6VN7Z0MwW_jkTjFQ-7" target="uEte6VN7Z0MwW_jkTjFQ-2">
          <mxGeometry relative="1" as="geometry">
            <mxPoint x="430" y="330" as="sourcePoint" />
            <mxPoint x="550" y="340" as="targetPoint" />
          </mxGeometry>
        </mxCell>
        <mxCell id="uEte6VN7Z0MwW_jkTjFQ-27" value="N" style="resizable=0;html=1;whiteSpace=wrap;align=right;verticalAlign=bottom;" connectable="0" vertex="1" parent="uEte6VN7Z0MwW_jkTjFQ-26">
          <mxGeometry x="1" relative="1" as="geometry">
            <mxPoint x="-20" y="40" as="offset" />
          </mxGeometry>
        </mxCell>
        <mxCell id="IgKFJBDuOfGapP7i8kGc-3" value="date_time" style="ellipse;whiteSpace=wrap;html=1;align=center;" vertex="1" parent="1">
          <mxGeometry x="405" y="430" width="105" height="40" as="geometry" />
        </mxCell>
        <mxCell id="IgKFJBDuOfGapP7i8kGc-4" value="" style="endArrow=none;html=1;rounded=0;" edge="1" parent="1" source="IgKFJBDuOfGapP7i8kGc-3" target="uEte6VN7Z0MwW_jkTjFQ-7">
          <mxGeometry relative="1" as="geometry">
            <mxPoint x="410" y="350" as="sourcePoint" />
            <mxPoint x="360" y="384" as="targetPoint" />
          </mxGeometry>
        </mxCell>
        <mxCell id="IgKFJBDuOfGapP7i8kGc-8" value="admit" style="shape=rhombus;perimeter=rhombusPerimeter;whiteSpace=wrap;html=1;align=center;" vertex="1" parent="1">
          <mxGeometry x="397.5" y="250" width="120" height="60" as="geometry" />
        </mxCell>
        <mxCell id="IgKFJBDuOfGapP7i8kGc-9" value="" style="endArrow=none;html=1;rounded=0;entryX=0;entryY=0.5;entryDx=0;entryDy=0;" edge="1" parent="1" source="uEte6VN7Z0MwW_jkTjFQ-1" target="IgKFJBDuOfGapP7i8kGc-8">
          <mxGeometry relative="1" as="geometry">
            <mxPoint x="350" y="329.71" as="sourcePoint" />
            <mxPoint x="421" y="349" as="targetPoint" />
          </mxGeometry>
        </mxCell>
        <mxCell id="IgKFJBDuOfGapP7i8kGc-10" value="1" style="resizable=0;html=1;whiteSpace=wrap;align=right;verticalAlign=bottom;" connectable="0" vertex="1" parent="IgKFJBDuOfGapP7i8kGc-9">
          <mxGeometry x="1" relative="1" as="geometry">
            <mxPoint x="-20" as="offset" />
          </mxGeometry>
        </mxCell>
        <mxCell id="IgKFJBDuOfGapP7i8kGc-11" value="" style="shape=link;html=1;rounded=0;exitX=1;exitY=0.5;exitDx=0;exitDy=0;" edge="1" parent="1" source="IgKFJBDuOfGapP7i8kGc-8" target="uEte6VN7Z0MwW_jkTjFQ-2">
          <mxGeometry relative="1" as="geometry">
            <mxPoint x="504" y="352" as="sourcePoint" />
            <mxPoint x="570" y="339" as="targetPoint" />
          </mxGeometry>
        </mxCell>
        <mxCell id="IgKFJBDuOfGapP7i8kGc-12" value="N" style="resizable=0;html=1;whiteSpace=wrap;align=right;verticalAlign=bottom;" connectable="0" vertex="1" parent="IgKFJBDuOfGapP7i8kGc-11">
          <mxGeometry x="1" relative="1" as="geometry">
            <mxPoint x="-4" y="-10" as="offset" />
          </mxGeometry>
        </mxCell>
      </root>
    </mxGraphModel>
  </diagram>
  <diagram id="QZzJxwFtI1QHzplb1-a3" name="organization">
    <mxGraphModel grid="1" page="1" gridSize="10" guides="1" tooltips="1" connect="1" arrows="1" fold="1" pageScale="1" pageWidth="850" pageHeight="1100" math="0" shadow="0">
      <root>
        <mxCell id="0" />
        <mxCell id="1" parent="0" />
        <mxCell id="InfNGPqgDWzpVhzdyZ7i-1" value="person" style="whiteSpace=wrap;html=1;align=center;" vertex="1" parent="1">
          <mxGeometry x="410" y="200" width="100" height="40" as="geometry" />
        </mxCell>
        <mxCell id="InfNGPqgDWzpVhzdyZ7i-2" value="&lt;u&gt;SSN&lt;/u&gt;" style="ellipse;whiteSpace=wrap;html=1;align=center;" vertex="1" parent="1">
          <mxGeometry x="250" y="160" width="100" height="40" as="geometry" />
        </mxCell>
        <mxCell id="InfNGPqgDWzpVhzdyZ7i-3" value="&lt;span&gt;name&lt;/span&gt;" style="ellipse;whiteSpace=wrap;html=1;align=center;fontStyle=0" vertex="1" parent="1">
          <mxGeometry x="340" y="130" width="100" height="40" as="geometry" />
        </mxCell>
        <mxCell id="InfNGPqgDWzpVhzdyZ7i-4" value="&lt;span&gt;add&lt;/span&gt;&lt;span style=&quot;color: rgba(0, 0, 0, 0); font-family: monospace; font-size: 0px; text-align: start; text-wrap: nowrap;&quot;&gt;%3CmxGraphModel%3E%3Croot%3E%3CmxCell%20id%3D%220%22%2F%3E%3CmxCell%20id%3D%221%22%20parent%3D%220%22%2F%3E%3CmxCell%20id%3D%222%22%20value%3D%22%26lt%3Bspan%26gt%3Bname%26lt%3B%2Fspan%26gt%3B%22%20style%3D%22ellipse%3BwhiteSpace%3Dwrap%3Bhtml%3D1%3Balign%3Dcenter%3BfontStyle%3D0%22%20vertex%3D%221%22%20parent%3D%221%22%3E%3CmxGeometry%20x%3D%22390%22%20y%3D%22200%22%20width%3D%22100%22%20height%3D%2240%22%20as%3D%22geometry%22%2F%3E%3C%2FmxCell%3E%3C%2Froot%3E%3C%2FmxGraphModel%3E&lt;/span&gt;&lt;span&gt;ress&lt;/span&gt;" style="ellipse;whiteSpace=wrap;html=1;align=center;fontStyle=0" vertex="1" parent="1">
          <mxGeometry x="460" y="130" width="100" height="40" as="geometry" />
        </mxCell>
        <mxCell id="InfNGPqgDWzpVhzdyZ7i-5" value="city" style="ellipse;whiteSpace=wrap;html=1;align=center;fontStyle=0" vertex="1" parent="1">
          <mxGeometry x="560" y="160" width="100" height="40" as="geometry" />
        </mxCell>
        <mxCell id="InfNGPqgDWzpVhzdyZ7i-6" value="state" style="ellipse;whiteSpace=wrap;html=1;align=center;fontStyle=0" vertex="1" parent="1">
          <mxGeometry x="560" y="210" width="100" height="40" as="geometry" />
        </mxCell>
        <mxCell id="InfNGPqgDWzpVhzdyZ7i-7" value="telephone" style="ellipse;whiteSpace=wrap;html=1;align=center;fontStyle=0" vertex="1" parent="1">
          <mxGeometry x="240" y="210" width="100" height="40" as="geometry" />
        </mxCell>
        <mxCell id="InfNGPqgDWzpVhzdyZ7i-10" value="" style="endArrow=none;html=1;rounded=0;" edge="1" parent="1" source="InfNGPqgDWzpVhzdyZ7i-7" target="InfNGPqgDWzpVhzdyZ7i-1">
          <mxGeometry relative="1" as="geometry">
            <mxPoint x="380" y="390" as="sourcePoint" />
            <mxPoint x="540" y="390" as="targetPoint" />
          </mxGeometry>
        </mxCell>
        <mxCell id="InfNGPqgDWzpVhzdyZ7i-11" value="" style="endArrow=none;html=1;rounded=0;" edge="1" parent="1" source="InfNGPqgDWzpVhzdyZ7i-2" target="InfNGPqgDWzpVhzdyZ7i-1">
          <mxGeometry relative="1" as="geometry">
            <mxPoint x="350" y="250" as="sourcePoint" />
            <mxPoint x="430" y="250" as="targetPoint" />
          </mxGeometry>
        </mxCell>
        <mxCell id="InfNGPqgDWzpVhzdyZ7i-12" value="" style="endArrow=none;html=1;rounded=0;" edge="1" parent="1" source="InfNGPqgDWzpVhzdyZ7i-3" target="InfNGPqgDWzpVhzdyZ7i-1">
          <mxGeometry relative="1" as="geometry">
            <mxPoint x="342" y="185" as="sourcePoint" />
            <mxPoint x="438" y="230" as="targetPoint" />
          </mxGeometry>
        </mxCell>
        <mxCell id="InfNGPqgDWzpVhzdyZ7i-13" value="" style="endArrow=none;html=1;rounded=0;" edge="1" parent="1" source="InfNGPqgDWzpVhzdyZ7i-4" target="InfNGPqgDWzpVhzdyZ7i-1">
          <mxGeometry relative="1" as="geometry">
            <mxPoint x="352" y="195" as="sourcePoint" />
            <mxPoint x="448" y="240" as="targetPoint" />
          </mxGeometry>
        </mxCell>
        <mxCell id="InfNGPqgDWzpVhzdyZ7i-14" value="" style="endArrow=none;html=1;rounded=0;" edge="1" parent="1" source="InfNGPqgDWzpVhzdyZ7i-5" target="InfNGPqgDWzpVhzdyZ7i-1">
          <mxGeometry relative="1" as="geometry">
            <mxPoint x="362" y="205" as="sourcePoint" />
            <mxPoint x="458" y="250" as="targetPoint" />
          </mxGeometry>
        </mxCell>
        <mxCell id="InfNGPqgDWzpVhzdyZ7i-15" value="" style="endArrow=none;html=1;rounded=0;" edge="1" parent="1" source="InfNGPqgDWzpVhzdyZ7i-6" target="InfNGPqgDWzpVhzdyZ7i-1">
          <mxGeometry relative="1" as="geometry">
            <mxPoint x="372" y="215" as="sourcePoint" />
            <mxPoint x="468" y="260" as="targetPoint" />
          </mxGeometry>
        </mxCell>
        <mxCell id="InfNGPqgDWzpVhzdyZ7i-16" value="employee" style="whiteSpace=wrap;html=1;align=center;" vertex="1" parent="1">
          <mxGeometry x="410" y="320" width="100" height="40" as="geometry" />
        </mxCell>
        <mxCell id="InfNGPqgDWzpVhzdyZ7i-20" value="item" style="whiteSpace=wrap;html=1;align=center;" vertex="1" parent="1">
          <mxGeometry x="260" y="470" width="100" height="40" as="geometry" />
        </mxCell>
        <mxCell id="InfNGPqgDWzpVhzdyZ7i-24" value="donor" style="whiteSpace=wrap;html=1;align=center;" vertex="1" parent="1">
          <mxGeometry x="260" y="320" width="100" height="40" as="geometry" />
        </mxCell>
        <mxCell id="InfNGPqgDWzpVhzdyZ7i-25" value="volunteer" style="whiteSpace=wrap;html=1;align=center;" vertex="1" parent="1">
          <mxGeometry x="560" y="320" width="100" height="40" as="geometry" />
        </mxCell>
        <mxCell id="InfNGPqgDWzpVhzdyZ7i-27" value="o" style="ellipse;whiteSpace=wrap;html=1;align=center;" vertex="1" parent="1">
          <mxGeometry x="450" y="270" width="20" height="20" as="geometry" />
        </mxCell>
        <mxCell id="InfNGPqgDWzpVhzdyZ7i-29" value="" style="endArrow=none;html=1;rounded=0;" edge="1" parent="1" source="InfNGPqgDWzpVhzdyZ7i-1" target="InfNGPqgDWzpVhzdyZ7i-27">
          <mxGeometry relative="1" as="geometry">
            <mxPoint x="440" y="360" as="sourcePoint" />
            <mxPoint x="600" y="360" as="targetPoint" />
          </mxGeometry>
        </mxCell>
        <mxCell id="InfNGPqgDWzpVhzdyZ7i-38" value="" style="endArrow=classic;html=1;rounded=0;" edge="1" parent="1" source="InfNGPqgDWzpVhzdyZ7i-27" target="InfNGPqgDWzpVhzdyZ7i-24">
          <mxGeometry width="50" height="50" relative="1" as="geometry">
            <mxPoint x="500" y="290" as="sourcePoint" />
            <mxPoint x="550" y="240" as="targetPoint" />
          </mxGeometry>
        </mxCell>
        <mxCell id="InfNGPqgDWzpVhzdyZ7i-39" value="" style="endArrow=classic;html=1;rounded=0;" edge="1" parent="1" source="InfNGPqgDWzpVhzdyZ7i-27" target="InfNGPqgDWzpVhzdyZ7i-16">
          <mxGeometry width="50" height="50" relative="1" as="geometry">
            <mxPoint x="461" y="314" as="sourcePoint" />
            <mxPoint x="370" y="350" as="targetPoint" />
          </mxGeometry>
        </mxCell>
        <mxCell id="InfNGPqgDWzpVhzdyZ7i-40" value="" style="endArrow=classic;html=1;rounded=0;" edge="1" parent="1" source="InfNGPqgDWzpVhzdyZ7i-27" target="InfNGPqgDWzpVhzdyZ7i-25">
          <mxGeometry width="50" height="50" relative="1" as="geometry">
            <mxPoint x="470" y="320" as="sourcePoint" />
            <mxPoint x="470" y="350" as="targetPoint" />
          </mxGeometry>
        </mxCell>
        <mxCell id="InfNGPqgDWzpVhzdyZ7i-41" value="date-hired" style="ellipse;whiteSpace=wrap;html=1;align=center;" vertex="1" parent="1">
          <mxGeometry x="410" y="380" width="100" height="40" as="geometry" />
        </mxCell>
        <mxCell id="InfNGPqgDWzpVhzdyZ7i-42" value="" style="endArrow=none;html=1;rounded=0;" edge="1" parent="1" source="InfNGPqgDWzpVhzdyZ7i-16" target="InfNGPqgDWzpVhzdyZ7i-41">
          <mxGeometry relative="1" as="geometry">
            <mxPoint x="470" y="210" as="sourcePoint" />
            <mxPoint x="470" y="260" as="targetPoint" />
          </mxGeometry>
        </mxCell>
        <mxCell id="InfNGPqgDWzpVhzdyZ7i-43" value="skill" style="ellipse;whiteSpace=wrap;html=1;align=center;" vertex="1" parent="1">
          <mxGeometry x="560" y="380" width="100" height="40" as="geometry" />
        </mxCell>
        <mxCell id="InfNGPqgDWzpVhzdyZ7i-44" value="" style="endArrow=none;html=1;rounded=0;" edge="1" parent="1" source="InfNGPqgDWzpVhzdyZ7i-25" target="InfNGPqgDWzpVhzdyZ7i-43">
          <mxGeometry relative="1" as="geometry">
            <mxPoint x="610" y="360" as="sourcePoint" />
            <mxPoint x="620" y="260" as="targetPoint" />
          </mxGeometry>
        </mxCell>
        <mxCell id="InfNGPqgDWzpVhzdyZ7i-46" value="donate" style="shape=rhombus;perimeter=rhombusPerimeter;whiteSpace=wrap;html=1;align=center;" vertex="1" parent="1">
          <mxGeometry x="250" y="380" width="120" height="60" as="geometry" />
        </mxCell>
        <mxCell id="InfNGPqgDWzpVhzdyZ7i-53" value="" style="shape=link;html=1;rounded=0;" edge="1" parent="1" source="InfNGPqgDWzpVhzdyZ7i-46" target="InfNGPqgDWzpVhzdyZ7i-20">
          <mxGeometry relative="1" as="geometry">
            <mxPoint x="309.73" y="440" as="sourcePoint" />
            <mxPoint x="309.73" y="470" as="targetPoint" />
          </mxGeometry>
        </mxCell>
        <mxCell id="InfNGPqgDWzpVhzdyZ7i-54" value="N" style="resizable=0;html=1;whiteSpace=wrap;align=right;verticalAlign=bottom;" connectable="0" vertex="1" parent="InfNGPqgDWzpVhzdyZ7i-53">
          <mxGeometry x="1" relative="1" as="geometry">
            <mxPoint x="-10" y="-10" as="offset" />
          </mxGeometry>
        </mxCell>
        <mxCell id="InfNGPqgDWzpVhzdyZ7i-55" value="" style="endArrow=none;html=1;rounded=0;" edge="1" parent="1" source="InfNGPqgDWzpVhzdyZ7i-24" target="InfNGPqgDWzpVhzdyZ7i-46">
          <mxGeometry relative="1" as="geometry">
            <mxPoint x="309.73" y="360" as="sourcePoint" />
            <mxPoint x="309.73" y="390" as="targetPoint" />
          </mxGeometry>
        </mxCell>
        <mxCell id="InfNGPqgDWzpVhzdyZ7i-56" value="1" style="resizable=0;html=1;whiteSpace=wrap;align=right;verticalAlign=bottom;" connectable="0" vertex="1" parent="InfNGPqgDWzpVhzdyZ7i-55">
          <mxGeometry x="1" relative="1" as="geometry">
            <mxPoint x="-10" as="offset" />
          </mxGeometry>
        </mxCell>
        <mxCell id="c1DjTK9ni5w17NulIhoq-1" value="id" style="ellipse;whiteSpace=wrap;html=1;align=center;fontStyle=4" vertex="1" parent="1">
          <mxGeometry x="200" y="530" width="100" height="40" as="geometry" />
        </mxCell>
        <mxCell id="c1DjTK9ni5w17NulIhoq-2" value="description" style="ellipse;whiteSpace=wrap;html=1;align=center;" vertex="1" parent="1">
          <mxGeometry x="325" y="530" width="100" height="40" as="geometry" />
        </mxCell>
        <mxCell id="c1DjTK9ni5w17NulIhoq-3" value="" style="endArrow=none;html=1;rounded=0;" edge="1" parent="1" source="InfNGPqgDWzpVhzdyZ7i-20" target="c1DjTK9ni5w17NulIhoq-1">
          <mxGeometry relative="1" as="geometry">
            <mxPoint x="470" y="360" as="sourcePoint" />
            <mxPoint x="261.077165241001" y="531.863834560069" as="targetPoint" />
          </mxGeometry>
        </mxCell>
        <mxCell id="c1DjTK9ni5w17NulIhoq-4" value="" style="endArrow=none;html=1;rounded=0;" edge="1" parent="1" source="InfNGPqgDWzpVhzdyZ7i-20" target="c1DjTK9ni5w17NulIhoq-2">
          <mxGeometry relative="1" as="geometry">
            <mxPoint x="480" y="370" as="sourcePoint" />
            <mxPoint x="480" y="400" as="targetPoint" />
          </mxGeometry>
        </mxCell>
      </root>
    </mxGraphModel>
  </diagram>
  <diagram id="Z3fG-BBYgLGLPWQpIp_1" name="attic antique">
    <mxGraphModel grid="1" page="1" gridSize="10" guides="1" tooltips="1" connect="1" arrows="1" fold="1" pageScale="1" pageWidth="850" pageHeight="1100" math="0" shadow="0">
      <root>
        <mxCell id="0" />
        <mxCell id="1" parent="0" />
        <mxCell id="t5Rv-OYxa6iGyhmVMdOC-2" value="antique item" style="whiteSpace=wrap;html=1;align=center;" vertex="1" parent="1">
          <mxGeometry x="190" y="290" width="100" height="40" as="geometry" />
        </mxCell>
        <mxCell id="t5Rv-OYxa6iGyhmVMdOC-4" value="serial number" style="ellipse;whiteSpace=wrap;html=1;align=center;fontStyle=4;" vertex="1" parent="1">
          <mxGeometry x="80" y="245" width="100" height="40" as="geometry" />
        </mxCell>
        <mxCell id="t5Rv-OYxa6iGyhmVMdOC-5" value="characterized" style="ellipse;whiteSpace=wrap;html=1;align=center;" vertex="1" parent="1">
          <mxGeometry x="70" y="340" width="100" height="40" as="geometry" />
        </mxCell>
        <mxCell id="t5Rv-OYxa6iGyhmVMdOC-6" value="" style="endArrow=none;html=1;rounded=0;" edge="1" parent="1" source="t5Rv-OYxa6iGyhmVMdOC-2" target="t5Rv-OYxa6iGyhmVMdOC-5">
          <mxGeometry relative="1" as="geometry">
            <mxPoint x="380" y="380" as="sourcePoint" />
            <mxPoint x="540" y="380" as="targetPoint" />
          </mxGeometry>
        </mxCell>
        <mxCell id="t5Rv-OYxa6iGyhmVMdOC-7" value="" style="endArrow=none;html=1;rounded=0;" edge="1" parent="1" source="t5Rv-OYxa6iGyhmVMdOC-2" target="t5Rv-OYxa6iGyhmVMdOC-4">
          <mxGeometry relative="1" as="geometry">
            <mxPoint x="241" y="340" as="sourcePoint" />
            <mxPoint x="228" y="370" as="targetPoint" />
          </mxGeometry>
        </mxCell>
        <mxCell id="t5Rv-OYxa6iGyhmVMdOC-8" value="price" style="ellipse;whiteSpace=wrap;html=1;align=center;" vertex="1" parent="1">
          <mxGeometry x="30" y="400" width="100" height="40" as="geometry" />
        </mxCell>
        <mxCell id="t5Rv-OYxa6iGyhmVMdOC-9" value="condition" style="ellipse;whiteSpace=wrap;html=1;align=center;" vertex="1" parent="1">
          <mxGeometry x="140" y="400" width="100" height="40" as="geometry" />
        </mxCell>
        <mxCell id="t5Rv-OYxa6iGyhmVMdOC-11" value="" style="endArrow=none;html=1;rounded=0;" edge="1" parent="1" source="t5Rv-OYxa6iGyhmVMdOC-5" target="t5Rv-OYxa6iGyhmVMdOC-8">
          <mxGeometry relative="1" as="geometry">
            <mxPoint x="311" y="340" as="sourcePoint" />
            <mxPoint x="298" y="370" as="targetPoint" />
          </mxGeometry>
        </mxCell>
        <mxCell id="t5Rv-OYxa6iGyhmVMdOC-12" value="" style="endArrow=none;html=1;rounded=0;" edge="1" parent="1" source="t5Rv-OYxa6iGyhmVMdOC-5" target="t5Rv-OYxa6iGyhmVMdOC-9">
          <mxGeometry relative="1" as="geometry">
            <mxPoint x="267" y="408" as="sourcePoint" />
            <mxPoint x="223" y="442" as="targetPoint" />
          </mxGeometry>
        </mxCell>
        <mxCell id="t5Rv-OYxa6iGyhmVMdOC-14" value="client" style="whiteSpace=wrap;html=1;align=center;" vertex="1" parent="1">
          <mxGeometry x="560" y="285" width="100" height="40" as="geometry" />
        </mxCell>
        <mxCell id="t5Rv-OYxa6iGyhmVMdOC-15" value="buy" style="shape=rhombus;perimeter=rhombusPerimeter;whiteSpace=wrap;html=1;align=center;" vertex="1" parent="1">
          <mxGeometry x="360" y="230" width="120" height="60" as="geometry" />
        </mxCell>
        <mxCell id="t5Rv-OYxa6iGyhmVMdOC-16" value="cell" style="shape=rhombus;perimeter=rhombusPerimeter;whiteSpace=wrap;html=1;align=center;" vertex="1" parent="1">
          <mxGeometry x="360" y="325" width="120" height="60" as="geometry" />
        </mxCell>
        <mxCell id="t5Rv-OYxa6iGyhmVMdOC-17" value="id" style="ellipse;whiteSpace=wrap;html=1;align=center;fontStyle=4;" vertex="1" parent="1">
          <mxGeometry x="680" y="225" width="100" height="40" as="geometry" />
        </mxCell>
        <mxCell id="t5Rv-OYxa6iGyhmVMdOC-18" value="" style="endArrow=none;html=1;rounded=0;" edge="1" parent="1" source="t5Rv-OYxa6iGyhmVMdOC-14" target="t5Rv-OYxa6iGyhmVMdOC-17">
          <mxGeometry relative="1" as="geometry">
            <mxPoint x="628" y="295" as="sourcePoint" />
            <mxPoint x="608" y="375" as="targetPoint" />
          </mxGeometry>
        </mxCell>
        <mxCell id="t5Rv-OYxa6iGyhmVMdOC-19" value="name" style="ellipse;whiteSpace=wrap;html=1;align=center;" vertex="1" parent="1">
          <mxGeometry x="680" y="285" width="100" height="40" as="geometry" />
        </mxCell>
        <mxCell id="t5Rv-OYxa6iGyhmVMdOC-20" value="" style="endArrow=none;html=1;rounded=0;" edge="1" parent="1" source="t5Rv-OYxa6iGyhmVMdOC-14" target="t5Rv-OYxa6iGyhmVMdOC-19">
          <mxGeometry relative="1" as="geometry">
            <mxPoint x="610" y="333" as="sourcePoint" />
            <mxPoint x="569.2642726895592" y="321.58166271133666" as="targetPoint" />
          </mxGeometry>
        </mxCell>
        <mxCell id="t5Rv-OYxa6iGyhmVMdOC-21" value="address" style="ellipse;whiteSpace=wrap;html=1;align=center;" vertex="1" parent="1">
          <mxGeometry x="680" y="340" width="100" height="40" as="geometry" />
        </mxCell>
        <mxCell id="t5Rv-OYxa6iGyhmVMdOC-22" value="" style="endArrow=none;html=1;rounded=0;" edge="1" parent="1" source="t5Rv-OYxa6iGyhmVMdOC-14" target="t5Rv-OYxa6iGyhmVMdOC-21">
          <mxGeometry relative="1" as="geometry">
            <mxPoint x="717" y="350" as="sourcePoint" />
            <mxPoint x="741" y="320" as="targetPoint" />
          </mxGeometry>
        </mxCell>
        <mxCell id="t5Rv-OYxa6iGyhmVMdOC-23" value="tax" style="ellipse;whiteSpace=wrap;html=1;align=center;" vertex="1" parent="1">
          <mxGeometry x="300" y="430" width="100" height="40" as="geometry" />
        </mxCell>
        <mxCell id="t5Rv-OYxa6iGyhmVMdOC-24" value="date" style="ellipse;whiteSpace=wrap;html=1;align=center;" vertex="1" parent="1">
          <mxGeometry x="420" y="430" width="100" height="40" as="geometry" />
        </mxCell>
        <mxCell id="t5Rv-OYxa6iGyhmVMdOC-25" value="actual price" style="ellipse;whiteSpace=wrap;html=1;align=center;dashed=1;" vertex="1" parent="1">
          <mxGeometry x="540" y="430" width="100" height="40" as="geometry" />
        </mxCell>
        <mxCell id="t5Rv-OYxa6iGyhmVMdOC-26" value="" style="endArrow=none;html=1;rounded=0;" edge="1" parent="1" source="t5Rv-OYxa6iGyhmVMdOC-23" target="t5Rv-OYxa6iGyhmVMdOC-16">
          <mxGeometry relative="1" as="geometry">
            <mxPoint x="139" y="348" as="sourcePoint" />
            <mxPoint x="211" y="417" as="targetPoint" />
          </mxGeometry>
        </mxCell>
        <mxCell id="t5Rv-OYxa6iGyhmVMdOC-27" value="" style="endArrow=none;html=1;rounded=0;" edge="1" parent="1" source="t5Rv-OYxa6iGyhmVMdOC-24" target="t5Rv-OYxa6iGyhmVMdOC-16">
          <mxGeometry relative="1" as="geometry">
            <mxPoint x="337" y="481" as="sourcePoint" />
            <mxPoint x="411" y="401" as="targetPoint" />
          </mxGeometry>
        </mxCell>
        <mxCell id="t5Rv-OYxa6iGyhmVMdOC-28" value="" style="endArrow=none;html=1;rounded=0;" edge="1" parent="1" source="t5Rv-OYxa6iGyhmVMdOC-25" target="t5Rv-OYxa6iGyhmVMdOC-16">
          <mxGeometry relative="1" as="geometry">
            <mxPoint x="438" y="480" as="sourcePoint" />
            <mxPoint x="432" y="409" as="targetPoint" />
          </mxGeometry>
        </mxCell>
        <mxCell id="t5Rv-OYxa6iGyhmVMdOC-29" value="purchase cost" style="ellipse;whiteSpace=wrap;html=1;align=center;" vertex="1" parent="1">
          <mxGeometry x="300" y="165" width="100" height="40" as="geometry" />
        </mxCell>
        <mxCell id="t5Rv-OYxa6iGyhmVMdOC-30" value="" style="endArrow=none;html=1;rounded=0;" edge="1" parent="1" source="t5Rv-OYxa6iGyhmVMdOC-29" target="t5Rv-OYxa6iGyhmVMdOC-15">
          <mxGeometry relative="1" as="geometry">
            <mxPoint x="149" y="78" as="sourcePoint" />
            <mxPoint x="411" y="121" as="targetPoint" />
          </mxGeometry>
        </mxCell>
        <mxCell id="t5Rv-OYxa6iGyhmVMdOC-31" value="date" style="ellipse;whiteSpace=wrap;html=1;align=center;" vertex="1" parent="1">
          <mxGeometry x="410" y="165" width="100" height="40" as="geometry" />
        </mxCell>
        <mxCell id="t5Rv-OYxa6iGyhmVMdOC-32" value="" style="endArrow=none;html=1;rounded=0;" edge="1" parent="1" source="t5Rv-OYxa6iGyhmVMdOC-31" target="t5Rv-OYxa6iGyhmVMdOC-15">
          <mxGeometry relative="1" as="geometry">
            <mxPoint x="309" y="52" as="sourcePoint" />
            <mxPoint x="571" y="95" as="targetPoint" />
          </mxGeometry>
        </mxCell>
        <mxCell id="t5Rv-OYxa6iGyhmVMdOC-34" value="condition" style="ellipse;whiteSpace=wrap;html=1;align=center;" vertex="1" parent="1">
          <mxGeometry x="540" y="165" width="100" height="40" as="geometry" />
        </mxCell>
        <mxCell id="t5Rv-OYxa6iGyhmVMdOC-35" value="" style="endArrow=none;html=1;rounded=0;" edge="1" parent="1" source="t5Rv-OYxa6iGyhmVMdOC-34" target="t5Rv-OYxa6iGyhmVMdOC-15">
          <mxGeometry relative="1" as="geometry">
            <mxPoint x="339" y="73" as="sourcePoint" />
            <mxPoint x="469" y="260" as="targetPoint" />
          </mxGeometry>
        </mxCell>
        <mxCell id="t5Rv-OYxa6iGyhmVMdOC-37" value="" style="shape=link;html=1;rounded=0;" edge="1" parent="1" source="t5Rv-OYxa6iGyhmVMdOC-14" target="t5Rv-OYxa6iGyhmVMdOC-15">
          <mxGeometry relative="1" as="geometry">
            <mxPoint x="350" y="340" as="sourcePoint" />
            <mxPoint x="510" y="340" as="targetPoint" />
          </mxGeometry>
        </mxCell>
        <mxCell id="t5Rv-OYxa6iGyhmVMdOC-38" value="N" style="resizable=0;html=1;whiteSpace=wrap;align=right;verticalAlign=bottom;" connectable="0" vertex="1" parent="t5Rv-OYxa6iGyhmVMdOC-37">
          <mxGeometry x="1" relative="1" as="geometry">
            <mxPoint x="63" y="8" as="offset" />
          </mxGeometry>
        </mxCell>
        <mxCell id="t5Rv-OYxa6iGyhmVMdOC-39" value="" style="shape=link;html=1;rounded=0;" edge="1" parent="1" source="t5Rv-OYxa6iGyhmVMdOC-14" target="t5Rv-OYxa6iGyhmVMdOC-16">
          <mxGeometry relative="1" as="geometry">
            <mxPoint x="570" y="299" as="sourcePoint" />
            <mxPoint x="467" y="267" as="targetPoint" />
          </mxGeometry>
        </mxCell>
        <mxCell id="t5Rv-OYxa6iGyhmVMdOC-40" value="N" style="resizable=0;html=1;whiteSpace=wrap;align=right;verticalAlign=bottom;" connectable="0" vertex="1" parent="t5Rv-OYxa6iGyhmVMdOC-39">
          <mxGeometry x="1" relative="1" as="geometry">
            <mxPoint x="74" as="offset" />
          </mxGeometry>
        </mxCell>
        <mxCell id="t5Rv-OYxa6iGyhmVMdOC-42" value="" style="endArrow=none;html=1;rounded=0;" edge="1" parent="1" source="t5Rv-OYxa6iGyhmVMdOC-2" target="t5Rv-OYxa6iGyhmVMdOC-15">
          <mxGeometry relative="1" as="geometry">
            <mxPoint x="350" y="340" as="sourcePoint" />
            <mxPoint x="510" y="340" as="targetPoint" />
          </mxGeometry>
        </mxCell>
        <mxCell id="t5Rv-OYxa6iGyhmVMdOC-43" value="M" style="resizable=0;html=1;whiteSpace=wrap;align=right;verticalAlign=bottom;" connectable="0" vertex="1" parent="t5Rv-OYxa6iGyhmVMdOC-42">
          <mxGeometry x="1" relative="1" as="geometry">
            <mxPoint x="-45" y="17" as="offset" />
          </mxGeometry>
        </mxCell>
        <mxCell id="t5Rv-OYxa6iGyhmVMdOC-44" value="" style="endArrow=none;html=1;rounded=0;" edge="1" parent="1" source="t5Rv-OYxa6iGyhmVMdOC-2" target="t5Rv-OYxa6iGyhmVMdOC-16">
          <mxGeometry relative="1" as="geometry">
            <mxPoint x="300" y="302" as="sourcePoint" />
            <mxPoint x="395" y="268" as="targetPoint" />
          </mxGeometry>
        </mxCell>
        <mxCell id="t5Rv-OYxa6iGyhmVMdOC-45" value="M" style="resizable=0;html=1;whiteSpace=wrap;align=right;verticalAlign=bottom;" connectable="0" vertex="1" parent="t5Rv-OYxa6iGyhmVMdOC-44">
          <mxGeometry x="1" relative="1" as="geometry">
            <mxPoint x="-54" y="2" as="offset" />
          </mxGeometry>
        </mxCell>
      </root>
    </mxGraphModel>
  </diagram>
</mxfile>
